<mxfile host="Electron" modified="2024-03-29T22:07:08.558Z" agent="Mozilla/5.0 (Windows NT 10.0; Win64; x64) AppleWebKit/537.36 (KHTML, like Gecko) draw.io/24.1.0 Chrome/120.0.6099.109 Electron/28.1.0 Safari/537.36" etag="dtjwsvgKADnwhroZix21" version="24.1.0" type="device">
  <diagram name="Page-1" id="6B1nr5OPRPS0jnGLa4M8">
    <mxGraphModel dx="3160" dy="2549" grid="1" gridSize="10" guides="1" tooltips="1" connect="1" arrows="1" fold="1" page="1" pageScale="1" pageWidth="827" pageHeight="1169" math="0" shadow="0">
      <root>
        <mxCell id="0" />
        <mxCell id="1" parent="0" />
        <mxCell id="Ns_ssreX8UHOYA4Wf67k-3" style="edgeStyle=orthogonalEdgeStyle;rounded=0;orthogonalLoop=1;jettySize=auto;html=1;exitX=0.5;exitY=1;exitDx=0;exitDy=0;" parent="1" source="Ns_ssreX8UHOYA4Wf67k-1" edge="1">
          <mxGeometry relative="1" as="geometry">
            <mxPoint x="100" y="200" as="targetPoint" />
          </mxGeometry>
        </mxCell>
        <mxCell id="Ns_ssreX8UHOYA4Wf67k-4" value="Rezervacija termina" style="edgeLabel;html=1;align=center;verticalAlign=middle;resizable=0;points=[];" parent="Ns_ssreX8UHOYA4Wf67k-3" vertex="1" connectable="0">
          <mxGeometry x="-0.094" y="-1" relative="1" as="geometry">
            <mxPoint as="offset" />
          </mxGeometry>
        </mxCell>
        <mxCell id="Ns_ssreX8UHOYA4Wf67k-76" style="edgeStyle=orthogonalEdgeStyle;rounded=0;orthogonalLoop=1;jettySize=auto;html=1;exitX=1;exitY=0.25;exitDx=0;exitDy=0;entryX=0;entryY=0.5;entryDx=0;entryDy=0;" parent="1" source="Ns_ssreX8UHOYA4Wf67k-1" target="Ns_ssreX8UHOYA4Wf67k-8" edge="1">
          <mxGeometry relative="1" as="geometry" />
        </mxCell>
        <mxCell id="Ns_ssreX8UHOYA4Wf67k-78" value="Izmjena osobnih&amp;nbsp;&lt;div&gt;podataka&lt;/div&gt;" style="edgeLabel;html=1;align=center;verticalAlign=middle;resizable=0;points=[];" parent="Ns_ssreX8UHOYA4Wf67k-76" vertex="1" connectable="0">
          <mxGeometry x="-0.0086" relative="1" as="geometry">
            <mxPoint y="-1" as="offset" />
          </mxGeometry>
        </mxCell>
        <mxCell id="Ns_ssreX8UHOYA4Wf67k-77" style="edgeStyle=orthogonalEdgeStyle;rounded=0;orthogonalLoop=1;jettySize=auto;html=1;exitX=1;exitY=0.75;exitDx=0;exitDy=0;entryX=0;entryY=0.5;entryDx=0;entryDy=0;" parent="1" edge="1">
          <mxGeometry relative="1" as="geometry">
            <mxPoint x="160" y="80" as="sourcePoint" />
            <mxPoint x="280" y="135" as="targetPoint" />
            <Array as="points">
              <mxPoint x="220" y="80" />
              <mxPoint x="220" y="125" />
              <mxPoint x="260" y="125" />
              <mxPoint x="260" y="135" />
            </Array>
          </mxGeometry>
        </mxCell>
        <mxCell id="Ns_ssreX8UHOYA4Wf67k-79" value="Pregled osobnih&lt;div&gt;podataka&lt;/div&gt;" style="edgeLabel;html=1;align=center;verticalAlign=middle;resizable=0;points=[];" parent="Ns_ssreX8UHOYA4Wf67k-77" vertex="1" connectable="0">
          <mxGeometry x="-0.0486" y="2" relative="1" as="geometry">
            <mxPoint y="-1" as="offset" />
          </mxGeometry>
        </mxCell>
        <mxCell id="g8_DW_XBnQp3Kb0tC2Wg-3" style="edgeStyle=orthogonalEdgeStyle;rounded=0;orthogonalLoop=1;jettySize=auto;html=1;exitX=0.75;exitY=1;exitDx=0;exitDy=0;entryX=0.25;entryY=0;entryDx=0;entryDy=0;" edge="1" parent="1" source="Ns_ssreX8UHOYA4Wf67k-1" target="Ns_ssreX8UHOYA4Wf67k-94">
          <mxGeometry relative="1" as="geometry">
            <mxPoint x="380" y="270" as="targetPoint" />
            <Array as="points">
              <mxPoint x="150" y="110" />
              <mxPoint x="150" y="180" />
              <mxPoint x="270" y="180" />
            </Array>
          </mxGeometry>
        </mxCell>
        <mxCell id="g8_DW_XBnQp3Kb0tC2Wg-5" value="Pregled rasporeda&lt;div&gt;rezervacija&lt;/div&gt;" style="edgeLabel;html=1;align=center;verticalAlign=middle;resizable=0;points=[];" vertex="1" connectable="0" parent="g8_DW_XBnQp3Kb0tC2Wg-3">
          <mxGeometry x="0.0828" relative="1" as="geometry">
            <mxPoint as="offset" />
          </mxGeometry>
        </mxCell>
        <mxCell id="g8_DW_XBnQp3Kb0tC2Wg-47" style="edgeStyle=orthogonalEdgeStyle;rounded=0;orthogonalLoop=1;jettySize=auto;html=1;exitX=0.25;exitY=0;exitDx=0;exitDy=0;entryX=0.75;entryY=0;entryDx=0;entryDy=0;" edge="1" parent="1" source="Ns_ssreX8UHOYA4Wf67k-1" target="Ns_ssreX8UHOYA4Wf67k-70">
          <mxGeometry relative="1" as="geometry">
            <mxPoint x="710" y="-160" as="targetPoint" />
            <Array as="points">
              <mxPoint x="70" y="-54" />
              <mxPoint x="610" y="-54" />
            </Array>
          </mxGeometry>
        </mxCell>
        <mxCell id="g8_DW_XBnQp3Kb0tC2Wg-50" value="Pregled obavijesti" style="edgeLabel;html=1;align=center;verticalAlign=middle;resizable=0;points=[];" vertex="1" connectable="0" parent="g8_DW_XBnQp3Kb0tC2Wg-47">
          <mxGeometry x="-0.3586" y="1" relative="1" as="geometry">
            <mxPoint as="offset" />
          </mxGeometry>
        </mxCell>
        <mxCell id="g8_DW_XBnQp3Kb0tC2Wg-63" style="edgeStyle=orthogonalEdgeStyle;rounded=0;orthogonalLoop=1;jettySize=auto;html=1;exitX=0;exitY=0.5;exitDx=0;exitDy=0;entryX=0.5;entryY=0;entryDx=0;entryDy=0;" edge="1" parent="1" source="Ns_ssreX8UHOYA4Wf67k-1" target="g8_DW_XBnQp3Kb0tC2Wg-64">
          <mxGeometry relative="1" as="geometry">
            <mxPoint x="-130" y="80.61538461538476" as="targetPoint" />
          </mxGeometry>
        </mxCell>
        <mxCell id="g8_DW_XBnQp3Kb0tC2Wg-69" value="Otkazivanje&lt;div&gt;rezervacije&lt;/div&gt;" style="edgeLabel;html=1;align=center;verticalAlign=middle;resizable=0;points=[];" vertex="1" connectable="0" parent="g8_DW_XBnQp3Kb0tC2Wg-63">
          <mxGeometry x="0.2615" relative="1" as="geometry">
            <mxPoint y="39" as="offset" />
          </mxGeometry>
        </mxCell>
        <mxCell id="Ns_ssreX8UHOYA4Wf67k-1" value="Član sportskog centra" style="rounded=0;whiteSpace=wrap;html=1;" parent="1" vertex="1">
          <mxGeometry x="40" y="50" width="120" height="60" as="geometry" />
        </mxCell>
        <mxCell id="Ns_ssreX8UHOYA4Wf67k-6" value="&lt;div&gt;&lt;br&gt;&lt;/div&gt;Unos nove rezervacije&lt;div&gt;&lt;/div&gt;" style="rounded=1;whiteSpace=wrap;html=1;" parent="1" vertex="1">
          <mxGeometry x="40" y="200" width="120" height="60" as="geometry" />
        </mxCell>
        <mxCell id="Ns_ssreX8UHOYA4Wf67k-7" value="" style="endArrow=none;html=1;rounded=0;" parent="1" edge="1">
          <mxGeometry width="50" height="50" relative="1" as="geometry">
            <mxPoint x="40" y="220" as="sourcePoint" />
            <mxPoint x="160" y="220" as="targetPoint" />
            <Array as="points" />
          </mxGeometry>
        </mxCell>
        <mxCell id="Ns_ssreX8UHOYA4Wf67k-84" style="edgeStyle=orthogonalEdgeStyle;rounded=0;orthogonalLoop=1;jettySize=auto;html=1;exitX=1;exitY=0.5;exitDx=0;exitDy=0;entryX=0.5;entryY=0;entryDx=0;entryDy=0;" parent="1" source="Ns_ssreX8UHOYA4Wf67k-8" target="Ns_ssreX8UHOYA4Wf67k-82" edge="1">
          <mxGeometry relative="1" as="geometry" />
        </mxCell>
        <mxCell id="Ns_ssreX8UHOYA4Wf67k-85" value="Novi podaci&amp;nbsp;&lt;div&gt;o članu&lt;/div&gt;" style="edgeLabel;html=1;align=center;verticalAlign=middle;resizable=0;points=[];" parent="Ns_ssreX8UHOYA4Wf67k-84" vertex="1" connectable="0">
          <mxGeometry x="-0.1405" y="-4" relative="1" as="geometry">
            <mxPoint x="-6" as="offset" />
          </mxGeometry>
        </mxCell>
        <mxCell id="Ns_ssreX8UHOYA4Wf67k-8" value="Izmjena podataka" style="rounded=1;whiteSpace=wrap;html=1;" parent="1" vertex="1">
          <mxGeometry x="280" y="-20" width="120" height="60" as="geometry" />
        </mxCell>
        <mxCell id="Ns_ssreX8UHOYA4Wf67k-9" value="" style="endArrow=none;html=1;rounded=0;" parent="1" edge="1">
          <mxGeometry width="50" height="50" relative="1" as="geometry">
            <mxPoint x="280" as="sourcePoint" />
            <mxPoint x="400" as="targetPoint" />
            <Array as="points" />
          </mxGeometry>
        </mxCell>
        <mxCell id="Ns_ssreX8UHOYA4Wf67k-61" style="edgeStyle=orthogonalEdgeStyle;rounded=0;orthogonalLoop=1;jettySize=auto;html=1;exitX=1;exitY=0.5;exitDx=0;exitDy=0;entryX=0;entryY=0.5;entryDx=0;entryDy=0;" parent="1" source="Ns_ssreX8UHOYA4Wf67k-10" target="Ns_ssreX8UHOYA4Wf67k-56" edge="1">
          <mxGeometry relative="1" as="geometry" />
        </mxCell>
        <mxCell id="Ns_ssreX8UHOYA4Wf67k-62" value="Brisanje zaposlenika" style="edgeLabel;html=1;align=center;verticalAlign=middle;resizable=0;points=[];" parent="Ns_ssreX8UHOYA4Wf67k-61" vertex="1" connectable="0">
          <mxGeometry x="0.0602" y="-1" relative="1" as="geometry">
            <mxPoint as="offset" />
          </mxGeometry>
        </mxCell>
        <mxCell id="Ns_ssreX8UHOYA4Wf67k-10" value="Brisanje zaposlenika" style="rounded=1;whiteSpace=wrap;html=1;" parent="1" vertex="1">
          <mxGeometry x="680" y="800" width="120" height="60" as="geometry" />
        </mxCell>
        <mxCell id="Ns_ssreX8UHOYA4Wf67k-11" value="" style="endArrow=none;html=1;rounded=0;" parent="1" edge="1">
          <mxGeometry width="50" height="50" relative="1" as="geometry">
            <mxPoint x="680" y="820" as="sourcePoint" />
            <mxPoint x="800" y="820" as="targetPoint" />
            <Array as="points" />
          </mxGeometry>
        </mxCell>
        <mxCell id="Ns_ssreX8UHOYA4Wf67k-17" value="" style="endArrow=classic;html=1;rounded=0;" parent="1" edge="1">
          <mxGeometry width="50" height="50" relative="1" as="geometry">
            <mxPoint x="100" y="260" as="sourcePoint" />
            <mxPoint x="100" y="360" as="targetPoint" />
          </mxGeometry>
        </mxCell>
        <mxCell id="Ns_ssreX8UHOYA4Wf67k-19" value="Rezervacija" style="edgeLabel;html=1;align=center;verticalAlign=middle;resizable=0;points=[];" parent="Ns_ssreX8UHOYA4Wf67k-17" vertex="1" connectable="0">
          <mxGeometry x="-0.0513" y="3" relative="1" as="geometry">
            <mxPoint y="1" as="offset" />
          </mxGeometry>
        </mxCell>
        <mxCell id="g8_DW_XBnQp3Kb0tC2Wg-26" style="edgeStyle=orthogonalEdgeStyle;rounded=0;orthogonalLoop=1;jettySize=auto;html=1;exitX=1;exitY=0.5;exitDx=0;exitDy=0;entryX=0;entryY=0.5;entryDx=0;entryDy=0;" edge="1" parent="1" source="Ns_ssreX8UHOYA4Wf67k-20" target="Ns_ssreX8UHOYA4Wf67k-94">
          <mxGeometry relative="1" as="geometry" />
        </mxCell>
        <mxCell id="g8_DW_XBnQp3Kb0tC2Wg-27" value="Raspored&lt;div&gt;rezervacija&lt;/div&gt;" style="edgeLabel;html=1;align=center;verticalAlign=middle;resizable=0;points=[];" vertex="1" connectable="0" parent="g8_DW_XBnQp3Kb0tC2Wg-26">
          <mxGeometry x="-0.1179" y="2" relative="1" as="geometry">
            <mxPoint as="offset" />
          </mxGeometry>
        </mxCell>
        <mxCell id="Ns_ssreX8UHOYA4Wf67k-20" value="&amp;nbsp; &amp;nbsp; &amp;nbsp; &amp;nbsp; Rezervacija" style="rounded=0;whiteSpace=wrap;html=1;" parent="1" vertex="1">
          <mxGeometry x="40" y="360" width="120" height="20" as="geometry" />
        </mxCell>
        <mxCell id="Ns_ssreX8UHOYA4Wf67k-21" value="" style="endArrow=none;html=1;rounded=0;entryX=0.163;entryY=0.053;entryDx=0;entryDy=0;entryPerimeter=0;exitX=0.163;exitY=1.064;exitDx=0;exitDy=0;exitPerimeter=0;" parent="1" edge="1">
          <mxGeometry width="50" height="50" relative="1" as="geometry">
            <mxPoint x="70" y="380" as="sourcePoint" />
            <mxPoint x="70" y="359.78" as="targetPoint" />
          </mxGeometry>
        </mxCell>
        <mxCell id="Ns_ssreX8UHOYA4Wf67k-22" value="" style="endArrow=classic;html=1;rounded=0;exitX=0.5;exitY=1;exitDx=0;exitDy=0;entryX=0.5;entryY=0;entryDx=0;entryDy=0;" parent="1" source="Ns_ssreX8UHOYA4Wf67k-20" target="Ns_ssreX8UHOYA4Wf67k-23" edge="1">
          <mxGeometry width="50" height="50" relative="1" as="geometry">
            <mxPoint x="340" y="530" as="sourcePoint" />
            <mxPoint x="100" y="680" as="targetPoint" />
          </mxGeometry>
        </mxCell>
        <mxCell id="Ns_ssreX8UHOYA4Wf67k-26" value="Rezervacija" style="edgeLabel;html=1;align=center;verticalAlign=middle;resizable=0;points=[];" parent="Ns_ssreX8UHOYA4Wf67k-22" vertex="1" connectable="0">
          <mxGeometry x="-0.179" y="2" relative="1" as="geometry">
            <mxPoint as="offset" />
          </mxGeometry>
        </mxCell>
        <mxCell id="Ns_ssreX8UHOYA4Wf67k-28" style="edgeStyle=orthogonalEdgeStyle;rounded=0;orthogonalLoop=1;jettySize=auto;html=1;exitX=1;exitY=0.75;exitDx=0;exitDy=0;entryX=0;entryY=0.75;entryDx=0;entryDy=0;" parent="1" source="Ns_ssreX8UHOYA4Wf67k-23" target="Ns_ssreX8UHOYA4Wf67k-25" edge="1">
          <mxGeometry relative="1" as="geometry" />
        </mxCell>
        <mxCell id="Ns_ssreX8UHOYA4Wf67k-30" value="Popis rezervacija" style="edgeLabel;html=1;align=center;verticalAlign=middle;resizable=0;points=[];" parent="Ns_ssreX8UHOYA4Wf67k-28" vertex="1" connectable="0">
          <mxGeometry x="0.0062" y="2" relative="1" as="geometry">
            <mxPoint x="-1" as="offset" />
          </mxGeometry>
        </mxCell>
        <mxCell id="Ns_ssreX8UHOYA4Wf67k-23" value="&lt;div&gt;&lt;br&gt;&lt;/div&gt;Dohvat rezervacija" style="rounded=1;whiteSpace=wrap;html=1;" parent="1" vertex="1">
          <mxGeometry x="40" y="690" width="120" height="60" as="geometry" />
        </mxCell>
        <mxCell id="Ns_ssreX8UHOYA4Wf67k-24" value="" style="endArrow=none;html=1;rounded=0;" parent="1" edge="1">
          <mxGeometry width="50" height="50" relative="1" as="geometry">
            <mxPoint x="40" y="710" as="sourcePoint" />
            <mxPoint x="160" y="710" as="targetPoint" />
            <Array as="points" />
          </mxGeometry>
        </mxCell>
        <mxCell id="Ns_ssreX8UHOYA4Wf67k-27" style="edgeStyle=orthogonalEdgeStyle;rounded=0;orthogonalLoop=1;jettySize=auto;html=1;exitX=0;exitY=0.25;exitDx=0;exitDy=0;entryX=1;entryY=0.25;entryDx=0;entryDy=0;" parent="1" source="Ns_ssreX8UHOYA4Wf67k-25" target="Ns_ssreX8UHOYA4Wf67k-23" edge="1">
          <mxGeometry relative="1" as="geometry" />
        </mxCell>
        <mxCell id="Ns_ssreX8UHOYA4Wf67k-29" value="Pregled rezervacija" style="edgeLabel;html=1;align=center;verticalAlign=middle;resizable=0;points=[];" parent="Ns_ssreX8UHOYA4Wf67k-27" vertex="1" connectable="0">
          <mxGeometry x="-0.0479" relative="1" as="geometry">
            <mxPoint x="-1" as="offset" />
          </mxGeometry>
        </mxCell>
        <mxCell id="Ns_ssreX8UHOYA4Wf67k-31" style="edgeStyle=orthogonalEdgeStyle;rounded=0;orthogonalLoop=1;jettySize=auto;html=1;exitX=1;exitY=0.25;exitDx=0;exitDy=0;entryX=0;entryY=0.5;entryDx=0;entryDy=0;" parent="1" source="Ns_ssreX8UHOYA4Wf67k-25" target="Ns_ssreX8UHOYA4Wf67k-39" edge="1">
          <mxGeometry relative="1" as="geometry">
            <mxPoint x="680" y="614.9999999999998" as="targetPoint" />
            <Array as="points">
              <mxPoint x="600" y="705" />
              <mxPoint x="600" y="615" />
            </Array>
          </mxGeometry>
        </mxCell>
        <mxCell id="Ns_ssreX8UHOYA4Wf67k-49" value="Dodavanje zaposlenika" style="edgeLabel;html=1;align=center;verticalAlign=middle;resizable=0;points=[];" parent="Ns_ssreX8UHOYA4Wf67k-31" vertex="1" connectable="0">
          <mxGeometry x="0.046" y="-1" relative="1" as="geometry">
            <mxPoint y="1" as="offset" />
          </mxGeometry>
        </mxCell>
        <mxCell id="Ns_ssreX8UHOYA4Wf67k-32" style="edgeStyle=orthogonalEdgeStyle;rounded=0;orthogonalLoop=1;jettySize=auto;html=1;exitX=1;exitY=0.5;exitDx=0;exitDy=0;" parent="1" source="Ns_ssreX8UHOYA4Wf67k-25" edge="1">
          <mxGeometry relative="1" as="geometry">
            <mxPoint x="680" y="720" as="targetPoint" />
          </mxGeometry>
        </mxCell>
        <mxCell id="Ns_ssreX8UHOYA4Wf67k-50" value="Izmjena podataka&amp;nbsp;" style="edgeLabel;html=1;align=center;verticalAlign=middle;resizable=0;points=[];" parent="Ns_ssreX8UHOYA4Wf67k-32" vertex="1" connectable="0">
          <mxGeometry x="0.3274" y="4" relative="1" as="geometry">
            <mxPoint as="offset" />
          </mxGeometry>
        </mxCell>
        <mxCell id="Ns_ssreX8UHOYA4Wf67k-33" style="edgeStyle=orthogonalEdgeStyle;rounded=0;orthogonalLoop=1;jettySize=auto;html=1;exitX=1;exitY=0.75;exitDx=0;exitDy=0;entryX=0;entryY=0.5;entryDx=0;entryDy=0;" parent="1" source="Ns_ssreX8UHOYA4Wf67k-25" target="Ns_ssreX8UHOYA4Wf67k-10" edge="1">
          <mxGeometry relative="1" as="geometry">
            <mxPoint x="680" y="760" as="targetPoint" />
            <Array as="points">
              <mxPoint x="600" y="735" />
              <mxPoint x="600" y="830" />
            </Array>
          </mxGeometry>
        </mxCell>
        <mxCell id="Ns_ssreX8UHOYA4Wf67k-51" value="Brisanje zaposlenika" style="edgeLabel;html=1;align=center;verticalAlign=middle;resizable=0;points=[];" parent="Ns_ssreX8UHOYA4Wf67k-33" vertex="1" connectable="0">
          <mxGeometry x="0.6157" y="2" relative="1" as="geometry">
            <mxPoint x="-21" y="-18" as="offset" />
          </mxGeometry>
        </mxCell>
        <mxCell id="Ns_ssreX8UHOYA4Wf67k-46" style="edgeStyle=orthogonalEdgeStyle;rounded=0;orthogonalLoop=1;jettySize=auto;html=1;exitX=1;exitY=1;exitDx=0;exitDy=0;entryX=0;entryY=0.5;entryDx=0;entryDy=0;" parent="1" source="Ns_ssreX8UHOYA4Wf67k-25" target="Ns_ssreX8UHOYA4Wf67k-47" edge="1">
          <mxGeometry relative="1" as="geometry">
            <mxPoint x="640" y="940" as="targetPoint" />
            <Array as="points">
              <mxPoint x="550" y="750" />
              <mxPoint x="550" y="870" />
              <mxPoint x="640" y="870" />
              <mxPoint x="640" y="940" />
            </Array>
          </mxGeometry>
        </mxCell>
        <mxCell id="Ns_ssreX8UHOYA4Wf67k-52" value="Pregled zaposlenika" style="edgeLabel;html=1;align=center;verticalAlign=middle;resizable=0;points=[];" parent="Ns_ssreX8UHOYA4Wf67k-46" vertex="1" connectable="0">
          <mxGeometry x="0.2057" y="2" relative="1" as="geometry">
            <mxPoint as="offset" />
          </mxGeometry>
        </mxCell>
        <mxCell id="g8_DW_XBnQp3Kb0tC2Wg-8" style="edgeStyle=orthogonalEdgeStyle;rounded=0;orthogonalLoop=1;jettySize=auto;html=1;exitX=0.5;exitY=0;exitDx=0;exitDy=0;entryX=0.5;entryY=1;entryDx=0;entryDy=0;" edge="1" parent="1" source="Ns_ssreX8UHOYA4Wf67k-25" target="Ns_ssreX8UHOYA4Wf67k-94">
          <mxGeometry relative="1" as="geometry">
            <Array as="points">
              <mxPoint x="460" y="570" />
              <mxPoint x="300" y="570" />
            </Array>
          </mxGeometry>
        </mxCell>
        <mxCell id="g8_DW_XBnQp3Kb0tC2Wg-12" value="Pregled rasporeda&lt;div&gt;rezervacija&lt;/div&gt;" style="edgeLabel;html=1;align=center;verticalAlign=middle;resizable=0;points=[];" vertex="1" connectable="0" parent="g8_DW_XBnQp3Kb0tC2Wg-8">
          <mxGeometry x="0.2965" y="1" relative="1" as="geometry">
            <mxPoint as="offset" />
          </mxGeometry>
        </mxCell>
        <mxCell id="Ns_ssreX8UHOYA4Wf67k-25" value="Administrator" style="rounded=0;whiteSpace=wrap;html=1;" parent="1" vertex="1">
          <mxGeometry x="400" y="690" width="120" height="60" as="geometry" />
        </mxCell>
        <mxCell id="Ns_ssreX8UHOYA4Wf67k-55" style="edgeStyle=orthogonalEdgeStyle;rounded=0;orthogonalLoop=1;jettySize=auto;html=1;exitX=1;exitY=0.5;exitDx=0;exitDy=0;entryX=0.5;entryY=0;entryDx=0;entryDy=0;" parent="1" source="Ns_ssreX8UHOYA4Wf67k-39" target="Ns_ssreX8UHOYA4Wf67k-56" edge="1">
          <mxGeometry relative="1" as="geometry">
            <mxPoint x="1060" y="615" as="targetPoint" />
          </mxGeometry>
        </mxCell>
        <mxCell id="Ns_ssreX8UHOYA4Wf67k-58" value="Novi zaposlenik" style="edgeLabel;html=1;align=center;verticalAlign=middle;resizable=0;points=[];" parent="Ns_ssreX8UHOYA4Wf67k-55" vertex="1" connectable="0">
          <mxGeometry x="-0.1608" y="4" relative="1" as="geometry">
            <mxPoint as="offset" />
          </mxGeometry>
        </mxCell>
        <mxCell id="Ns_ssreX8UHOYA4Wf67k-39" value="&lt;div&gt;&lt;br&gt;&lt;/div&gt;Dodavanje novog zaposlenika" style="rounded=1;whiteSpace=wrap;html=1;" parent="1" vertex="1">
          <mxGeometry x="680" y="585" width="120" height="60" as="geometry" />
        </mxCell>
        <mxCell id="Ns_ssreX8UHOYA4Wf67k-40" value="" style="endArrow=none;html=1;rounded=0;" parent="1" edge="1">
          <mxGeometry width="50" height="50" relative="1" as="geometry">
            <mxPoint x="680" y="605" as="sourcePoint" />
            <mxPoint x="800" y="605" as="targetPoint" />
            <Array as="points" />
          </mxGeometry>
        </mxCell>
        <mxCell id="Ns_ssreX8UHOYA4Wf67k-59" style="edgeStyle=orthogonalEdgeStyle;rounded=0;orthogonalLoop=1;jettySize=auto;html=1;exitX=1;exitY=0.5;exitDx=0;exitDy=0;entryX=0.25;entryY=0;entryDx=0;entryDy=0;" parent="1" source="Ns_ssreX8UHOYA4Wf67k-41" target="Ns_ssreX8UHOYA4Wf67k-56" edge="1">
          <mxGeometry relative="1" as="geometry" />
        </mxCell>
        <mxCell id="Ns_ssreX8UHOYA4Wf67k-60" value="Novi podaci o zaposleniku" style="edgeLabel;html=1;align=center;verticalAlign=middle;resizable=0;points=[];" parent="Ns_ssreX8UHOYA4Wf67k-59" vertex="1" connectable="0">
          <mxGeometry x="-0.1949" y="-2" relative="1" as="geometry">
            <mxPoint as="offset" />
          </mxGeometry>
        </mxCell>
        <mxCell id="Ns_ssreX8UHOYA4Wf67k-41" value="&lt;div&gt;&lt;br&gt;&lt;/div&gt;&amp;nbsp; Ažuriranje podataka&amp;nbsp;&lt;div&gt;o zaposleniku&lt;/div&gt;" style="rounded=1;whiteSpace=wrap;html=1;" parent="1" vertex="1">
          <mxGeometry x="680" y="690" width="120" height="60" as="geometry" />
        </mxCell>
        <mxCell id="Ns_ssreX8UHOYA4Wf67k-42" value="" style="endArrow=none;html=1;rounded=0;" parent="1" edge="1">
          <mxGeometry width="50" height="50" relative="1" as="geometry">
            <mxPoint x="680" y="710" as="sourcePoint" />
            <mxPoint x="800" y="710" as="targetPoint" />
            <Array as="points" />
          </mxGeometry>
        </mxCell>
        <mxCell id="Ns_ssreX8UHOYA4Wf67k-53" style="edgeStyle=orthogonalEdgeStyle;rounded=0;orthogonalLoop=1;jettySize=auto;html=1;exitX=0;exitY=0.75;exitDx=0;exitDy=0;entryX=0.75;entryY=1;entryDx=0;entryDy=0;" parent="1" source="Ns_ssreX8UHOYA4Wf67k-47" target="Ns_ssreX8UHOYA4Wf67k-25" edge="1">
          <mxGeometry relative="1" as="geometry" />
        </mxCell>
        <mxCell id="Ns_ssreX8UHOYA4Wf67k-54" value="Popis zaposlenika" style="edgeLabel;html=1;align=center;verticalAlign=middle;resizable=0;points=[];" parent="Ns_ssreX8UHOYA4Wf67k-53" vertex="1" connectable="0">
          <mxGeometry x="0.4722" y="-1" relative="1" as="geometry">
            <mxPoint y="1" as="offset" />
          </mxGeometry>
        </mxCell>
        <mxCell id="Ns_ssreX8UHOYA4Wf67k-47" value="Dohvat zaposlenika" style="rounded=1;whiteSpace=wrap;html=1;" parent="1" vertex="1">
          <mxGeometry x="680" y="910" width="120" height="60" as="geometry" />
        </mxCell>
        <mxCell id="Ns_ssreX8UHOYA4Wf67k-48" value="" style="endArrow=none;html=1;rounded=0;" parent="1" edge="1">
          <mxGeometry width="50" height="50" relative="1" as="geometry">
            <mxPoint x="680" y="930" as="sourcePoint" />
            <mxPoint x="800" y="930" as="targetPoint" />
            <Array as="points" />
          </mxGeometry>
        </mxCell>
        <mxCell id="Ns_ssreX8UHOYA4Wf67k-63" style="edgeStyle=orthogonalEdgeStyle;rounded=0;orthogonalLoop=1;jettySize=auto;html=1;exitX=0.5;exitY=1;exitDx=0;exitDy=0;entryX=1;entryY=0.5;entryDx=0;entryDy=0;" parent="1" source="Ns_ssreX8UHOYA4Wf67k-56" target="Ns_ssreX8UHOYA4Wf67k-47" edge="1">
          <mxGeometry relative="1" as="geometry" />
        </mxCell>
        <mxCell id="Ns_ssreX8UHOYA4Wf67k-64" value="Zaposlenik" style="edgeLabel;html=1;align=center;verticalAlign=middle;resizable=0;points=[];" parent="Ns_ssreX8UHOYA4Wf67k-63" vertex="1" connectable="0">
          <mxGeometry x="0.2988" y="-2" relative="1" as="geometry">
            <mxPoint as="offset" />
          </mxGeometry>
        </mxCell>
        <mxCell id="g8_DW_XBnQp3Kb0tC2Wg-21" style="edgeStyle=orthogonalEdgeStyle;rounded=0;orthogonalLoop=1;jettySize=auto;html=1;exitX=0.75;exitY=0;exitDx=0;exitDy=0;entryX=0.11;entryY=1.019;entryDx=0;entryDy=0;entryPerimeter=0;" edge="1" parent="1" source="Ns_ssreX8UHOYA4Wf67k-56" target="Ns_ssreX8UHOYA4Wf67k-74">
          <mxGeometry relative="1" as="geometry">
            <Array as="points">
              <mxPoint x="1060" y="450" />
              <mxPoint x="1059" y="390" />
            </Array>
          </mxGeometry>
        </mxCell>
        <mxCell id="g8_DW_XBnQp3Kb0tC2Wg-22" value="Zaposlenik" style="edgeLabel;html=1;align=center;verticalAlign=middle;resizable=0;points=[];" vertex="1" connectable="0" parent="g8_DW_XBnQp3Kb0tC2Wg-21">
          <mxGeometry x="0.218" y="4" relative="1" as="geometry">
            <mxPoint as="offset" />
          </mxGeometry>
        </mxCell>
        <mxCell id="Ns_ssreX8UHOYA4Wf67k-56" value="&amp;nbsp; &amp;nbsp; &amp;nbsp;Zaposlenik" style="rounded=0;whiteSpace=wrap;html=1;" parent="1" vertex="1">
          <mxGeometry x="970" y="780" width="120" height="20" as="geometry" />
        </mxCell>
        <mxCell id="Ns_ssreX8UHOYA4Wf67k-57" value="" style="endArrow=none;html=1;rounded=0;entryX=0.163;entryY=0.053;entryDx=0;entryDy=0;entryPerimeter=0;exitX=0.163;exitY=1.064;exitDx=0;exitDy=0;exitPerimeter=0;" parent="1" edge="1">
          <mxGeometry width="50" height="50" relative="1" as="geometry">
            <mxPoint x="1000" y="800" as="sourcePoint" />
            <mxPoint x="1000" y="779.78" as="targetPoint" />
          </mxGeometry>
        </mxCell>
        <mxCell id="Ns_ssreX8UHOYA4Wf67k-80" style="edgeStyle=orthogonalEdgeStyle;rounded=0;orthogonalLoop=1;jettySize=auto;html=1;exitX=0;exitY=0.75;exitDx=0;exitDy=0;entryX=1;entryY=1;entryDx=0;entryDy=0;" parent="1" source="Ns_ssreX8UHOYA4Wf67k-66" target="Ns_ssreX8UHOYA4Wf67k-1" edge="1">
          <mxGeometry relative="1" as="geometry" />
        </mxCell>
        <mxCell id="Ns_ssreX8UHOYA4Wf67k-81" value="Popis osobnih&amp;nbsp;&lt;div&gt;podataka&lt;/div&gt;" style="edgeLabel;html=1;align=center;verticalAlign=middle;resizable=0;points=[];" parent="Ns_ssreX8UHOYA4Wf67k-80" vertex="1" connectable="0">
          <mxGeometry x="-0.0543" y="2" relative="1" as="geometry">
            <mxPoint x="23" y="-7" as="offset" />
          </mxGeometry>
        </mxCell>
        <mxCell id="Ns_ssreX8UHOYA4Wf67k-66" value="&lt;div&gt;&lt;br&gt;&lt;/div&gt;Dohvat osobnih podataka" style="rounded=1;whiteSpace=wrap;html=1;" parent="1" vertex="1">
          <mxGeometry x="280" y="120" width="120" height="60" as="geometry" />
        </mxCell>
        <mxCell id="Ns_ssreX8UHOYA4Wf67k-67" value="" style="endArrow=none;html=1;rounded=0;" parent="1" edge="1">
          <mxGeometry width="50" height="50" relative="1" as="geometry">
            <mxPoint x="280" y="140" as="sourcePoint" />
            <mxPoint x="400" y="140" as="targetPoint" />
            <Array as="points" />
          </mxGeometry>
        </mxCell>
        <mxCell id="g8_DW_XBnQp3Kb0tC2Wg-43" style="edgeStyle=orthogonalEdgeStyle;rounded=0;orthogonalLoop=1;jettySize=auto;html=1;exitX=0.5;exitY=1;exitDx=0;exitDy=0;entryX=1;entryY=0;entryDx=0;entryDy=0;" edge="1" parent="1" source="Ns_ssreX8UHOYA4Wf67k-70" target="Ns_ssreX8UHOYA4Wf67k-25">
          <mxGeometry relative="1" as="geometry">
            <Array as="points">
              <mxPoint x="560" y="460" />
              <mxPoint x="560" y="600" />
              <mxPoint x="520" y="600" />
            </Array>
          </mxGeometry>
        </mxCell>
        <mxCell id="g8_DW_XBnQp3Kb0tC2Wg-46" value="Popis&lt;div&gt;obavijesti&lt;/div&gt;" style="edgeLabel;html=1;align=center;verticalAlign=middle;resizable=0;points=[];" vertex="1" connectable="0" parent="g8_DW_XBnQp3Kb0tC2Wg-43">
          <mxGeometry x="-0.3552" relative="1" as="geometry">
            <mxPoint x="-1" as="offset" />
          </mxGeometry>
        </mxCell>
        <mxCell id="g8_DW_XBnQp3Kb0tC2Wg-48" style="edgeStyle=orthogonalEdgeStyle;rounded=0;orthogonalLoop=1;jettySize=auto;html=1;exitX=0.845;exitY=0.034;exitDx=0;exitDy=0;entryX=0.084;entryY=-0.012;entryDx=0;entryDy=0;entryPerimeter=0;exitPerimeter=0;" edge="1" parent="1" source="Ns_ssreX8UHOYA4Wf67k-70" target="Ns_ssreX8UHOYA4Wf67k-1">
          <mxGeometry relative="1" as="geometry">
            <mxPoint x="40" y="40" as="targetPoint" />
            <Array as="points">
              <mxPoint x="621" y="400" />
              <mxPoint x="620" y="400" />
              <mxPoint x="620" y="-90" />
              <mxPoint x="50" y="-90" />
            </Array>
          </mxGeometry>
        </mxCell>
        <mxCell id="g8_DW_XBnQp3Kb0tC2Wg-53" value="Popis obavijesti" style="edgeLabel;html=1;align=center;verticalAlign=middle;resizable=0;points=[];" vertex="1" connectable="0" parent="g8_DW_XBnQp3Kb0tC2Wg-48">
          <mxGeometry x="0.3437" y="-1" relative="1" as="geometry">
            <mxPoint as="offset" />
          </mxGeometry>
        </mxCell>
        <mxCell id="Ns_ssreX8UHOYA4Wf67k-70" value="Dohvat obavijesti" style="rounded=1;whiteSpace=wrap;html=1;" parent="1" vertex="1">
          <mxGeometry x="520" y="400" width="120" height="60" as="geometry" />
        </mxCell>
        <mxCell id="Ns_ssreX8UHOYA4Wf67k-71" value="" style="endArrow=none;html=1;rounded=0;" parent="1" edge="1">
          <mxGeometry width="50" height="50" relative="1" as="geometry">
            <mxPoint x="520" y="420" as="sourcePoint" />
            <mxPoint x="640" y="420" as="targetPoint" />
            <Array as="points" />
          </mxGeometry>
        </mxCell>
        <mxCell id="g8_DW_XBnQp3Kb0tC2Wg-23" style="edgeStyle=orthogonalEdgeStyle;rounded=0;orthogonalLoop=1;jettySize=auto;html=1;exitX=0.25;exitY=0;exitDx=0;exitDy=0;entryX=1;entryY=1;entryDx=0;entryDy=0;" edge="1" parent="1" target="g8_DW_XBnQp3Kb0tC2Wg-14">
          <mxGeometry relative="1" as="geometry">
            <mxPoint x="1075.71" y="345" as="sourcePoint" />
            <mxPoint x="905.71" y="280" as="targetPoint" />
            <Array as="points">
              <mxPoint x="1075.71" y="270" />
            </Array>
          </mxGeometry>
        </mxCell>
        <mxCell id="g8_DW_XBnQp3Kb0tC2Wg-24" value="Osobni podaci" style="edgeLabel;html=1;align=center;verticalAlign=middle;resizable=0;points=[];" vertex="1" connectable="0" parent="g8_DW_XBnQp3Kb0tC2Wg-23">
          <mxGeometry x="0.1928" relative="1" as="geometry">
            <mxPoint as="offset" />
          </mxGeometry>
        </mxCell>
        <mxCell id="Ns_ssreX8UHOYA4Wf67k-74" value="&lt;div&gt;&lt;br&gt;&lt;/div&gt;Dohvat osobnih podataka" style="rounded=1;whiteSpace=wrap;html=1;" parent="1" vertex="1">
          <mxGeometry x="1045.71" y="330" width="120" height="60" as="geometry" />
        </mxCell>
        <mxCell id="Ns_ssreX8UHOYA4Wf67k-75" value="" style="endArrow=none;html=1;rounded=0;" parent="1" edge="1">
          <mxGeometry width="50" height="50" relative="1" as="geometry">
            <mxPoint x="1045.71" y="350" as="sourcePoint" />
            <mxPoint x="1165.71" y="350" as="targetPoint" />
            <Array as="points" />
          </mxGeometry>
        </mxCell>
        <mxCell id="Ns_ssreX8UHOYA4Wf67k-90" style="edgeStyle=orthogonalEdgeStyle;rounded=0;orthogonalLoop=1;jettySize=auto;html=1;exitX=0.5;exitY=1;exitDx=0;exitDy=0;entryX=1;entryY=0.5;entryDx=0;entryDy=0;" parent="1" source="Ns_ssreX8UHOYA4Wf67k-82" target="Ns_ssreX8UHOYA4Wf67k-66" edge="1">
          <mxGeometry relative="1" as="geometry" />
        </mxCell>
        <mxCell id="Ns_ssreX8UHOYA4Wf67k-91" value="Osobni podaci" style="edgeLabel;html=1;align=center;verticalAlign=middle;resizable=0;points=[];" parent="Ns_ssreX8UHOYA4Wf67k-90" vertex="1" connectable="0">
          <mxGeometry x="-0.1731" y="1" relative="1" as="geometry">
            <mxPoint x="-37" y="-1" as="offset" />
          </mxGeometry>
        </mxCell>
        <mxCell id="Ns_ssreX8UHOYA4Wf67k-82" value="Član" style="rounded=0;whiteSpace=wrap;html=1;" parent="1" vertex="1">
          <mxGeometry x="480" y="70.11000000000001" width="120" height="20" as="geometry" />
        </mxCell>
        <mxCell id="Ns_ssreX8UHOYA4Wf67k-83" value="" style="endArrow=none;html=1;rounded=0;entryX=0.163;entryY=0.053;entryDx=0;entryDy=0;entryPerimeter=0;exitX=0.163;exitY=1.064;exitDx=0;exitDy=0;exitPerimeter=0;" parent="1" edge="1">
          <mxGeometry width="50" height="50" relative="1" as="geometry">
            <mxPoint x="510" y="90.11000000000001" as="sourcePoint" />
            <mxPoint x="510" y="69.88999999999999" as="targetPoint" />
          </mxGeometry>
        </mxCell>
        <mxCell id="g8_DW_XBnQp3Kb0tC2Wg-4" style="edgeStyle=orthogonalEdgeStyle;rounded=0;orthogonalLoop=1;jettySize=auto;html=1;exitX=0.083;exitY=0;exitDx=0;exitDy=0;exitPerimeter=0;entryX=0.75;entryY=1;entryDx=0;entryDy=0;" edge="1" parent="1" source="Ns_ssreX8UHOYA4Wf67k-94" target="Ns_ssreX8UHOYA4Wf67k-1">
          <mxGeometry relative="1" as="geometry">
            <mxPoint x="200" y="300.0000000000002" as="targetPoint" />
            <Array as="points">
              <mxPoint x="250" y="280" />
              <mxPoint x="180" y="280" />
              <mxPoint x="180" y="190" />
              <mxPoint x="130" y="190" />
            </Array>
          </mxGeometry>
        </mxCell>
        <mxCell id="g8_DW_XBnQp3Kb0tC2Wg-6" value="Popis&amp;nbsp;&lt;div&gt;rasporeda rezervacija&lt;br&gt;&lt;/div&gt;" style="edgeLabel;html=1;align=center;verticalAlign=middle;resizable=0;points=[];" vertex="1" connectable="0" parent="g8_DW_XBnQp3Kb0tC2Wg-4">
          <mxGeometry x="-0.001" relative="1" as="geometry">
            <mxPoint as="offset" />
          </mxGeometry>
        </mxCell>
        <mxCell id="g8_DW_XBnQp3Kb0tC2Wg-16" style="edgeStyle=orthogonalEdgeStyle;rounded=0;orthogonalLoop=1;jettySize=auto;html=1;entryX=0;entryY=1;entryDx=0;entryDy=0;exitX=1.008;exitY=0.405;exitDx=0;exitDy=0;exitPerimeter=0;" edge="1" parent="1" source="Ns_ssreX8UHOYA4Wf67k-94" target="g8_DW_XBnQp3Kb0tC2Wg-14">
          <mxGeometry relative="1" as="geometry">
            <mxPoint x="390" y="460" as="sourcePoint" />
            <mxPoint x="732.85" y="250" as="targetPoint" />
            <Array as="points">
              <mxPoint x="390" y="474" />
              <mxPoint x="390" y="270" />
            </Array>
          </mxGeometry>
        </mxCell>
        <mxCell id="g8_DW_XBnQp3Kb0tC2Wg-18" value="Popis rasporeda&lt;div&gt;rezervacija&lt;/div&gt;" style="edgeLabel;html=1;align=center;verticalAlign=middle;resizable=0;points=[];" vertex="1" connectable="0" parent="g8_DW_XBnQp3Kb0tC2Wg-16">
          <mxGeometry x="-0.2993" y="1" relative="1" as="geometry">
            <mxPoint as="offset" />
          </mxGeometry>
        </mxCell>
        <mxCell id="Ns_ssreX8UHOYA4Wf67k-94" value="&lt;div&gt;&lt;br&gt;&lt;/div&gt;Dohvat rasporeda&lt;div&gt;rezervacija&lt;/div&gt;" style="rounded=1;whiteSpace=wrap;html=1;" parent="1" vertex="1">
          <mxGeometry x="240" y="450" width="120" height="60" as="geometry" />
        </mxCell>
        <mxCell id="Ns_ssreX8UHOYA4Wf67k-95" value="" style="endArrow=none;html=1;rounded=0;" parent="1" edge="1">
          <mxGeometry width="50" height="50" relative="1" as="geometry">
            <mxPoint x="240" y="470" as="sourcePoint" />
            <mxPoint x="360" y="470" as="targetPoint" />
            <Array as="points" />
          </mxGeometry>
        </mxCell>
        <mxCell id="g8_DW_XBnQp3Kb0tC2Wg-7" style="edgeStyle=orthogonalEdgeStyle;rounded=0;orthogonalLoop=1;jettySize=auto;html=1;exitX=0.25;exitY=1;exitDx=0;exitDy=0;entryX=0.157;entryY=-0.01;entryDx=0;entryDy=0;entryPerimeter=0;" edge="1" parent="1" source="Ns_ssreX8UHOYA4Wf67k-94" target="Ns_ssreX8UHOYA4Wf67k-25">
          <mxGeometry relative="1" as="geometry">
            <Array as="points">
              <mxPoint x="270" y="620" />
              <mxPoint x="419" y="620" />
            </Array>
          </mxGeometry>
        </mxCell>
        <mxCell id="g8_DW_XBnQp3Kb0tC2Wg-9" value="Popis rasporeda&lt;div&gt;rezervacija&lt;/div&gt;" style="edgeLabel;html=1;align=center;verticalAlign=middle;resizable=0;points=[];" vertex="1" connectable="0" parent="g8_DW_XBnQp3Kb0tC2Wg-7">
          <mxGeometry x="-0.0518" y="-4" relative="1" as="geometry">
            <mxPoint x="14" y="-4" as="offset" />
          </mxGeometry>
        </mxCell>
        <mxCell id="g8_DW_XBnQp3Kb0tC2Wg-15" style="edgeStyle=orthogonalEdgeStyle;rounded=0;orthogonalLoop=1;jettySize=auto;html=1;exitX=0;exitY=0.5;exitDx=0;exitDy=0;" edge="1" parent="1" source="g8_DW_XBnQp3Kb0tC2Wg-14">
          <mxGeometry relative="1" as="geometry">
            <mxPoint x="330" y="450" as="targetPoint" />
          </mxGeometry>
        </mxCell>
        <mxCell id="g8_DW_XBnQp3Kb0tC2Wg-17" value="Pregled rasporeda rezervacija" style="edgeLabel;html=1;align=center;verticalAlign=middle;resizable=0;points=[];" vertex="1" connectable="0" parent="g8_DW_XBnQp3Kb0tC2Wg-15">
          <mxGeometry x="-0.0458" y="2" relative="1" as="geometry">
            <mxPoint x="23" y="-2" as="offset" />
          </mxGeometry>
        </mxCell>
        <mxCell id="g8_DW_XBnQp3Kb0tC2Wg-19" style="edgeStyle=orthogonalEdgeStyle;rounded=0;orthogonalLoop=1;jettySize=auto;html=1;exitX=1;exitY=0.5;exitDx=0;exitDy=0;entryX=0.5;entryY=0;entryDx=0;entryDy=0;" edge="1" parent="1" source="g8_DW_XBnQp3Kb0tC2Wg-14" target="Ns_ssreX8UHOYA4Wf67k-74">
          <mxGeometry relative="1" as="geometry" />
        </mxCell>
        <mxCell id="g8_DW_XBnQp3Kb0tC2Wg-20" value="Zahtjev za pregledom&lt;div&gt;osobnih podataka&lt;/div&gt;" style="edgeLabel;html=1;align=center;verticalAlign=middle;resizable=0;points=[];" vertex="1" connectable="0" parent="g8_DW_XBnQp3Kb0tC2Wg-19">
          <mxGeometry x="-0.2267" y="-3" relative="1" as="geometry">
            <mxPoint as="offset" />
          </mxGeometry>
        </mxCell>
        <mxCell id="g8_DW_XBnQp3Kb0tC2Wg-33" style="edgeStyle=orthogonalEdgeStyle;rounded=0;orthogonalLoop=1;jettySize=auto;html=1;exitX=0.75;exitY=1;exitDx=0;exitDy=0;entryX=0.5;entryY=0;entryDx=0;entryDy=0;" edge="1" parent="1" source="g8_DW_XBnQp3Kb0tC2Wg-14" target="g8_DW_XBnQp3Kb0tC2Wg-30">
          <mxGeometry relative="1" as="geometry">
            <Array as="points">
              <mxPoint x="836" y="325" />
              <mxPoint x="970" y="325" />
            </Array>
          </mxGeometry>
        </mxCell>
        <mxCell id="g8_DW_XBnQp3Kb0tC2Wg-34" value="Zahtjev za dodavanje&amp;nbsp;&lt;div&gt;obavijesti&lt;/div&gt;" style="edgeLabel;html=1;align=center;verticalAlign=middle;resizable=0;points=[];" vertex="1" connectable="0" parent="g8_DW_XBnQp3Kb0tC2Wg-33">
          <mxGeometry x="0.0279" y="-2" relative="1" as="geometry">
            <mxPoint x="-27" as="offset" />
          </mxGeometry>
        </mxCell>
        <mxCell id="g8_DW_XBnQp3Kb0tC2Wg-56" style="edgeStyle=orthogonalEdgeStyle;rounded=0;orthogonalLoop=1;jettySize=auto;html=1;exitX=0.25;exitY=1;exitDx=0;exitDy=0;spacingRight=0;jumpStyle=none;sourcePerimeterSpacing=0;" edge="1" parent="1" source="g8_DW_XBnQp3Kb0tC2Wg-14">
          <mxGeometry relative="1" as="geometry">
            <mxPoint x="630" y="400" as="targetPoint" />
            <Array as="points">
              <mxPoint x="776" y="335" />
              <mxPoint x="630" y="335" />
            </Array>
          </mxGeometry>
        </mxCell>
        <mxCell id="g8_DW_XBnQp3Kb0tC2Wg-59" value="Pregled obavijesti" style="edgeLabel;html=1;align=center;verticalAlign=middle;resizable=0;points=[];" vertex="1" connectable="0" parent="g8_DW_XBnQp3Kb0tC2Wg-56">
          <mxGeometry x="0.0697" relative="1" as="geometry">
            <mxPoint as="offset" />
          </mxGeometry>
        </mxCell>
        <mxCell id="g8_DW_XBnQp3Kb0tC2Wg-73" style="edgeStyle=orthogonalEdgeStyle;rounded=0;orthogonalLoop=1;jettySize=auto;html=1;exitX=0.5;exitY=0;exitDx=0;exitDy=0;entryX=0.5;entryY=1;entryDx=0;entryDy=0;" edge="1" parent="1" source="g8_DW_XBnQp3Kb0tC2Wg-14" target="g8_DW_XBnQp3Kb0tC2Wg-71">
          <mxGeometry relative="1" as="geometry" />
        </mxCell>
        <mxCell id="g8_DW_XBnQp3Kb0tC2Wg-74" value="Izmjena statusa&lt;div&gt;rezervacije&lt;/div&gt;" style="edgeLabel;html=1;align=center;verticalAlign=middle;resizable=0;points=[];" vertex="1" connectable="0" parent="g8_DW_XBnQp3Kb0tC2Wg-73">
          <mxGeometry x="0.1344" y="-1" relative="1" as="geometry">
            <mxPoint y="1" as="offset" />
          </mxGeometry>
        </mxCell>
        <mxCell id="g8_DW_XBnQp3Kb0tC2Wg-14" value="Zaposlenici sportskog centra" style="rounded=0;whiteSpace=wrap;html=1;" vertex="1" parent="1">
          <mxGeometry x="745.71" y="210" width="120" height="60" as="geometry" />
        </mxCell>
        <mxCell id="g8_DW_XBnQp3Kb0tC2Wg-40" style="edgeStyle=orthogonalEdgeStyle;rounded=0;orthogonalLoop=1;jettySize=auto;html=1;exitX=0;exitY=0.5;exitDx=0;exitDy=0;entryX=1;entryY=0.5;entryDx=0;entryDy=0;" edge="1" parent="1" source="g8_DW_XBnQp3Kb0tC2Wg-30" target="g8_DW_XBnQp3Kb0tC2Wg-36">
          <mxGeometry relative="1" as="geometry" />
        </mxCell>
        <mxCell id="g8_DW_XBnQp3Kb0tC2Wg-41" value="Obavijest" style="edgeLabel;html=1;align=center;verticalAlign=middle;resizable=0;points=[];" vertex="1" connectable="0" parent="g8_DW_XBnQp3Kb0tC2Wg-40">
          <mxGeometry x="0.1961" y="-1" relative="1" as="geometry">
            <mxPoint x="10" y="1" as="offset" />
          </mxGeometry>
        </mxCell>
        <mxCell id="g8_DW_XBnQp3Kb0tC2Wg-30" value="&lt;div&gt;&lt;br&gt;&lt;/div&gt;Dodavanje obavijesti u sustav" style="rounded=1;whiteSpace=wrap;html=1;" vertex="1" parent="1">
          <mxGeometry x="910" y="400" width="120" height="60" as="geometry" />
        </mxCell>
        <mxCell id="g8_DW_XBnQp3Kb0tC2Wg-31" value="" style="endArrow=none;html=1;rounded=0;" edge="1" parent="1">
          <mxGeometry width="50" height="50" relative="1" as="geometry">
            <mxPoint x="910" y="420" as="sourcePoint" />
            <mxPoint x="1030" y="420" as="targetPoint" />
            <Array as="points" />
          </mxGeometry>
        </mxCell>
        <mxCell id="g8_DW_XBnQp3Kb0tC2Wg-54" style="edgeStyle=orthogonalEdgeStyle;rounded=0;orthogonalLoop=1;jettySize=auto;html=1;exitX=0.5;exitY=1;exitDx=0;exitDy=0;entryX=0.75;entryY=1;entryDx=0;entryDy=0;" edge="1" parent="1" source="g8_DW_XBnQp3Kb0tC2Wg-36" target="Ns_ssreX8UHOYA4Wf67k-70">
          <mxGeometry relative="1" as="geometry">
            <Array as="points">
              <mxPoint x="767" y="520" />
              <mxPoint x="610" y="520" />
            </Array>
          </mxGeometry>
        </mxCell>
        <mxCell id="g8_DW_XBnQp3Kb0tC2Wg-55" value="Obavijest" style="edgeLabel;html=1;align=center;verticalAlign=middle;resizable=0;points=[];" vertex="1" connectable="0" parent="g8_DW_XBnQp3Kb0tC2Wg-54">
          <mxGeometry x="0.1445" y="-2" relative="1" as="geometry">
            <mxPoint x="13" y="2" as="offset" />
          </mxGeometry>
        </mxCell>
        <mxCell id="g8_DW_XBnQp3Kb0tC2Wg-36" value="&amp;nbsp; &amp;nbsp; &amp;nbsp;Obavijest" style="rounded=0;whiteSpace=wrap;html=1;" vertex="1" parent="1">
          <mxGeometry x="707" y="420.11" width="120" height="20" as="geometry" />
        </mxCell>
        <mxCell id="g8_DW_XBnQp3Kb0tC2Wg-37" value="" style="endArrow=none;html=1;rounded=0;entryX=0.163;entryY=0.053;entryDx=0;entryDy=0;entryPerimeter=0;exitX=0.163;exitY=1.064;exitDx=0;exitDy=0;exitPerimeter=0;" edge="1" parent="1">
          <mxGeometry width="50" height="50" relative="1" as="geometry">
            <mxPoint x="737" y="440.11" as="sourcePoint" />
            <mxPoint x="737" y="419.89" as="targetPoint" />
          </mxGeometry>
        </mxCell>
        <mxCell id="g8_DW_XBnQp3Kb0tC2Wg-42" style="edgeStyle=orthogonalEdgeStyle;rounded=0;orthogonalLoop=1;jettySize=auto;html=1;entryX=0;entryY=0.75;entryDx=0;entryDy=0;exitX=0.832;exitY=-0.05;exitDx=0;exitDy=0;exitPerimeter=0;" edge="1" parent="1" source="Ns_ssreX8UHOYA4Wf67k-25">
          <mxGeometry relative="1" as="geometry">
            <mxPoint x="500" y="680" as="sourcePoint" />
            <mxPoint x="530" y="462" as="targetPoint" />
            <Array as="points">
              <mxPoint x="500" y="517" />
              <mxPoint x="530" y="517" />
            </Array>
          </mxGeometry>
        </mxCell>
        <mxCell id="g8_DW_XBnQp3Kb0tC2Wg-45" value="Pregled&lt;div&gt;obavijesti&lt;/div&gt;" style="edgeLabel;html=1;align=center;verticalAlign=middle;resizable=0;points=[];" vertex="1" connectable="0" parent="g8_DW_XBnQp3Kb0tC2Wg-42">
          <mxGeometry x="0.1952" y="3" relative="1" as="geometry">
            <mxPoint y="25" as="offset" />
          </mxGeometry>
        </mxCell>
        <mxCell id="g8_DW_XBnQp3Kb0tC2Wg-58" style="edgeStyle=orthogonalEdgeStyle;rounded=0;orthogonalLoop=1;jettySize=auto;html=1;entryX=0.419;entryY=1.004;entryDx=0;entryDy=0;entryPerimeter=0;" edge="1" parent="1">
          <mxGeometry relative="1" as="geometry">
            <mxPoint x="640" y="410" as="sourcePoint" />
            <mxPoint x="805.99" y="269.9999999999998" as="targetPoint" />
            <Array as="points">
              <mxPoint x="806" y="410" />
            </Array>
          </mxGeometry>
        </mxCell>
        <mxCell id="g8_DW_XBnQp3Kb0tC2Wg-62" value="Popis obavijesti" style="edgeLabel;html=1;align=center;verticalAlign=middle;resizable=0;points=[];" vertex="1" connectable="0" parent="g8_DW_XBnQp3Kb0tC2Wg-58">
          <mxGeometry x="-0.4702" y="-1" relative="1" as="geometry">
            <mxPoint y="-11" as="offset" />
          </mxGeometry>
        </mxCell>
        <mxCell id="g8_DW_XBnQp3Kb0tC2Wg-66" style="edgeStyle=orthogonalEdgeStyle;rounded=0;orthogonalLoop=1;jettySize=auto;html=1;exitX=0.5;exitY=1;exitDx=0;exitDy=0;" edge="1" parent="1">
          <mxGeometry relative="1" as="geometry">
            <mxPoint x="-110" y="260" as="sourcePoint" />
            <mxPoint x="40" y="370" as="targetPoint" />
            <Array as="points">
              <mxPoint x="-110" y="370" />
            </Array>
          </mxGeometry>
        </mxCell>
        <mxCell id="g8_DW_XBnQp3Kb0tC2Wg-70" value="Otkazivanje&lt;div&gt;rezervacije&lt;/div&gt;" style="edgeLabel;html=1;align=center;verticalAlign=middle;resizable=0;points=[];" vertex="1" connectable="0" parent="g8_DW_XBnQp3Kb0tC2Wg-66">
          <mxGeometry x="-0.4637" y="-4" relative="1" as="geometry">
            <mxPoint x="4" y="-11" as="offset" />
          </mxGeometry>
        </mxCell>
        <mxCell id="g8_DW_XBnQp3Kb0tC2Wg-64" value="&lt;div&gt;&lt;br&gt;&lt;/div&gt;Otkazivanje&amp;nbsp;&lt;div&gt;&lt;/div&gt;&lt;div&gt;rezervacije&lt;/div&gt;" style="rounded=1;whiteSpace=wrap;html=1;" vertex="1" parent="1">
          <mxGeometry x="-170" y="200" width="120" height="60" as="geometry" />
        </mxCell>
        <mxCell id="g8_DW_XBnQp3Kb0tC2Wg-65" value="" style="endArrow=none;html=1;rounded=0;" edge="1" parent="1">
          <mxGeometry width="50" height="50" relative="1" as="geometry">
            <mxPoint x="-170" y="220" as="sourcePoint" />
            <mxPoint x="-50" y="220" as="targetPoint" />
            <Array as="points" />
          </mxGeometry>
        </mxCell>
        <mxCell id="g8_DW_XBnQp3Kb0tC2Wg-75" style="edgeStyle=orthogonalEdgeStyle;rounded=0;orthogonalLoop=1;jettySize=auto;html=1;exitX=0.5;exitY=0;exitDx=0;exitDy=0;entryX=0.318;entryY=0.966;entryDx=0;entryDy=0;entryPerimeter=0;" edge="1" parent="1" source="g8_DW_XBnQp3Kb0tC2Wg-71" target="Ns_ssreX8UHOYA4Wf67k-20">
          <mxGeometry relative="1" as="geometry">
            <mxPoint x="70" y="400" as="targetPoint" />
            <Array as="points">
              <mxPoint x="806" y="-140" />
              <mxPoint x="-190" y="-140" />
              <mxPoint x="-190" y="460" />
              <mxPoint x="78" y="460" />
            </Array>
          </mxGeometry>
        </mxCell>
        <mxCell id="g8_DW_XBnQp3Kb0tC2Wg-78" value="Izmjena rezervacije" style="edgeLabel;html=1;align=center;verticalAlign=middle;resizable=0;points=[];" vertex="1" connectable="0" parent="g8_DW_XBnQp3Kb0tC2Wg-75">
          <mxGeometry x="-0.5225" y="-3" relative="1" as="geometry">
            <mxPoint x="-140" as="offset" />
          </mxGeometry>
        </mxCell>
        <mxCell id="g8_DW_XBnQp3Kb0tC2Wg-71" value="&lt;div&gt;&lt;br&gt;&lt;/div&gt;Evidentiranje prisutnosti člana&amp;nbsp;" style="rounded=1;whiteSpace=wrap;html=1;" vertex="1" parent="1">
          <mxGeometry x="745.71" y="-9.999999999999986" width="120" height="60" as="geometry" />
        </mxCell>
        <mxCell id="g8_DW_XBnQp3Kb0tC2Wg-72" value="" style="endArrow=none;html=1;rounded=0;" edge="1" parent="1">
          <mxGeometry width="50" height="50" relative="1" as="geometry">
            <mxPoint x="745.71" y="10.000000000000014" as="sourcePoint" />
            <mxPoint x="865.71" y="10.000000000000014" as="targetPoint" />
            <Array as="points" />
          </mxGeometry>
        </mxCell>
        <mxCell id="g8_DW_XBnQp3Kb0tC2Wg-79" value="P1" style="text;html=1;align=center;verticalAlign=middle;whiteSpace=wrap;rounded=0;" vertex="1" parent="1">
          <mxGeometry x="707" y="580" width="60" height="30" as="geometry" />
        </mxCell>
        <mxCell id="g8_DW_XBnQp3Kb0tC2Wg-80" value="P2" style="text;html=1;align=center;verticalAlign=middle;whiteSpace=wrap;rounded=0;" vertex="1" parent="1">
          <mxGeometry x="715.5" y="690" width="43" height="20" as="geometry" />
        </mxCell>
        <mxCell id="g8_DW_XBnQp3Kb0tC2Wg-81" value="P3" style="text;html=1;align=center;verticalAlign=middle;whiteSpace=wrap;rounded=0;" vertex="1" parent="1">
          <mxGeometry x="715.5" y="800" width="43" height="20" as="geometry" />
        </mxCell>
        <mxCell id="g8_DW_XBnQp3Kb0tC2Wg-82" value="P4" style="text;html=1;align=center;verticalAlign=middle;whiteSpace=wrap;rounded=0;" vertex="1" parent="1">
          <mxGeometry x="712" y="910" width="50" height="20" as="geometry" />
        </mxCell>
        <mxCell id="g8_DW_XBnQp3Kb0tC2Wg-83" value="D1" style="text;html=1;align=center;verticalAlign=middle;whiteSpace=wrap;rounded=0;" vertex="1" parent="1">
          <mxGeometry x="970" y="780" width="30" height="20" as="geometry" />
        </mxCell>
        <mxCell id="g8_DW_XBnQp3Kb0tC2Wg-84" value="P5" style="text;html=1;align=center;verticalAlign=middle;whiteSpace=wrap;rounded=0;" vertex="1" parent="1">
          <mxGeometry x="70" y="685" width="60" height="30" as="geometry" />
        </mxCell>
        <mxCell id="g8_DW_XBnQp3Kb0tC2Wg-85" value="P6" style="text;html=1;align=center;verticalAlign=middle;whiteSpace=wrap;rounded=0;" vertex="1" parent="1">
          <mxGeometry x="275" y="450" width="50" height="20.11" as="geometry" />
        </mxCell>
        <mxCell id="g8_DW_XBnQp3Kb0tC2Wg-87" value="P7" style="text;html=1;align=center;verticalAlign=middle;whiteSpace=wrap;rounded=0;" vertex="1" parent="1">
          <mxGeometry x="75" y="200" width="50" height="20" as="geometry" />
        </mxCell>
        <mxCell id="g8_DW_XBnQp3Kb0tC2Wg-88" value="P9" style="text;html=1;align=center;verticalAlign=middle;whiteSpace=wrap;rounded=0;" vertex="1" parent="1">
          <mxGeometry x="315" y="-20" width="50" height="20" as="geometry" />
        </mxCell>
        <mxCell id="g8_DW_XBnQp3Kb0tC2Wg-89" value="P10" style="text;html=1;align=center;verticalAlign=middle;whiteSpace=wrap;rounded=0;" vertex="1" parent="1">
          <mxGeometry x="315" y="120" width="50" height="20" as="geometry" />
        </mxCell>
        <mxCell id="g8_DW_XBnQp3Kb0tC2Wg-90" value="P8" style="text;html=1;align=center;verticalAlign=middle;whiteSpace=wrap;rounded=0;" vertex="1" parent="1">
          <mxGeometry x="-140" y="195" width="60" height="30" as="geometry" />
        </mxCell>
        <mxCell id="g8_DW_XBnQp3Kb0tC2Wg-91" value="P11" style="text;html=1;align=center;verticalAlign=middle;whiteSpace=wrap;rounded=0;" vertex="1" parent="1">
          <mxGeometry x="1080.71" y="330" width="50" height="20" as="geometry" />
        </mxCell>
        <mxCell id="g8_DW_XBnQp3Kb0tC2Wg-92" value="P12" style="text;html=1;align=center;verticalAlign=middle;whiteSpace=wrap;rounded=0;" vertex="1" parent="1">
          <mxGeometry x="950" y="400.11" width="40" height="20" as="geometry" />
        </mxCell>
        <mxCell id="g8_DW_XBnQp3Kb0tC2Wg-93" value="P13" style="text;html=1;align=center;verticalAlign=middle;whiteSpace=wrap;rounded=0;" vertex="1" parent="1">
          <mxGeometry x="550" y="395.11" width="60" height="30" as="geometry" />
        </mxCell>
        <mxCell id="g8_DW_XBnQp3Kb0tC2Wg-94" value="D2" style="text;html=1;align=center;verticalAlign=middle;whiteSpace=wrap;rounded=0;" vertex="1" parent="1">
          <mxGeometry x="35" y="357.5" width="40" height="25" as="geometry" />
        </mxCell>
        <mxCell id="g8_DW_XBnQp3Kb0tC2Wg-95" value="D3" style="text;html=1;align=center;verticalAlign=middle;whiteSpace=wrap;rounded=0;" vertex="1" parent="1">
          <mxGeometry x="480" y="67.55" width="30" height="22.56" as="geometry" />
        </mxCell>
        <mxCell id="g8_DW_XBnQp3Kb0tC2Wg-96" value="D4" style="text;html=1;align=center;verticalAlign=middle;whiteSpace=wrap;rounded=0;" vertex="1" parent="1">
          <mxGeometry x="695.71" y="420.22" width="50" height="19.89" as="geometry" />
        </mxCell>
        <mxCell id="g8_DW_XBnQp3Kb0tC2Wg-97" value="P14" style="text;html=1;align=center;verticalAlign=middle;whiteSpace=wrap;rounded=0;" vertex="1" parent="1">
          <mxGeometry x="778.5600000000001" y="-10" width="54.29" height="20" as="geometry" />
        </mxCell>
      </root>
    </mxGraphModel>
  </diagram>
</mxfile>
